<svg width="11543" height="11446" viewBox="0 0 11543 11446" fill="none" xmlns="http://www.w3.org/2000/svg">
<g clip-path="url(#clip0_192_14)">
<path d="M2397.2 9875.2C2784.81 10018.9 3231.62 9977.66 3636.79 9898.23C4556.22 9718.03 5389.65 9251.42 6100.2 8671.65C6845.63 8063.45 7446.07 7326.06 8008.19 6568.37C8297.25 6178.78 8574.74 5781.84 8859.78 5389.65C9001.48 5194.73 9142.71 4999.56 9287.15 4806.39C9424.16 4623.09 9572.52 4445.71 9699.61 4256.21C9821.61 4074.34 9912 3880.78 9937.37 3667.55C9962.41 3457.37 9925.13 3253.51 9877.16 3050.88C9799.98 2724.99 9666.53 2412.83 9484.14 2129.42C9360.49 1895.36 9180.03 1686.47 8959.28 1528.89C8912.47 1489.16 8864.72 1450.55 8816.16 1413.27C8807.75 1406.81 8799.66 1416.61 8797.51 1427.19C8466.79 1244.02 8078.62 1175.43 7691.23 1219.61C6783 1323.16 6009.59 1935.18 5368.06 2516.73C5019.13 2833.04 4685.07 3164.98 4358.6 3501.8C4062.41 3807.44 3774.63 4120.51 3501.88 4444.83C2959.12 5090.25 2473.91 5786.55 2120.28 6538.38C1946.44 6907.97 1805.21 7291.11 1706.85 7682.89C1602.62 8098.01 1531.09 8539.67 1630.19 8956.26C1725.77 9357.68 1982.92 9721.69 2397.2 9875.2Z" fill="#5B310D"/>
<path d="M1672.37 8217.52C1720.13 7817.81 1836.04 7419.07 1981.45 7038.93C2265.35 6296.6 2691.21 5607.69 3185.02 4968.27C3690.15 4314.17 4261.2 3708.19 4855.74 3124.92C5209.01 2778.33 5570.63 2437.54 5965.47 2132.81C6300.12 1874.51 6661.41 1640.14 7060.88 1484.04C7439.13 1336.23 7857.44 1266.83 8255.62 1344.79C8606.39 1413.48 8941.54 1588.64 9185.2 1833.85C9214.12 1868.43 9242.64 1903.37 9270.53 1938.85C9335.54 2021.56 9395.91 2107.53 9451.64 2196.17C9476.02 2242.41 9498.07 2289.57 9516.87 2337.5C9522.56 2352.02 9532.16 2353.5 9541.25 2348.42C9569.94 2400.8 9597.15 2453.94 9622.55 2507.92C9717.11 2708.96 9788.91 2920.51 9833.62 3137.66C9874.07 3334.18 9890.62 3552.4 9847.79 3752.13C9803.61 3958.13 9688.33 4140.68 9560.84 4312.2C9424.93 4495.04 9282.66 4673.74 9147.27 4857.01C8869.28 5233.35 8604.66 5617.97 8333.63 5998.6C7796.9 6752.37 7238.98 7498.48 6561.26 8148.79C5917.76 8766.27 5164.96 9297.29 4308.58 9610.83C3900.62 9760.17 3458.31 9868.02 3023.06 9874.61C2823.6 9877.65 2622.02 9854.8 2436.42 9789.31C2234.35 9718 2062.75 9591.52 1936.4 9428.15C1669.16 9082.63 1621.94 8639.32 1672.37 8217.52Z" fill="#D17B44"/>
<path opacity="0.37" d="M1936.4 9428.15C2062.75 9591.52 2234.35 9718 2436.42 9789.31C2622.04 9854.84 2823.6 9877.65 3023.06 9874.61C3458.28 9867.97 3900.62 9760.17 4308.58 9610.83C5164.96 9297.29 5917.73 8766.23 6561.26 8148.79C6663.12 8051.07 6761.93 7950.93 6858.72 7849.18C6670.1 7978.5 6475.88 8100.26 6275.62 8212.74C5724.71 8522.16 5121.23 8770.89 4495.55 8891.02C4273.48 8933.68 4034.61 8962.72 3814.34 8911.59C3598.25 8861.41 3448.79 8723.17 3388.18 8521.81C3321.63 8300.75 3349.68 8061.24 3412.7 7838.74C3483.6 7588.45 3599.44 7349.17 3729.73 7120.35C3850.58 6908.06 3986.63 6703.65 4126.91 6502.07C4322.84 6220.62 4523.92 5944.01 4752.28 5684.27C4987.95 5416.22 5247.35 5165.65 5535.42 4947.35C5680.57 4837.35 5833.01 4735.9 5992.46 4645.62C6153.61 4554.34 6323.74 4481.07 6492.97 4405.03C6662.1 4329.04 6829.82 4249.14 6985.08 4148.99C7142.71 4047.34 7278.58 3921.67 7408.5 3790.2C7539.09 3658.04 7663.55 3520.59 7797.72 3391.58C7916.87 3276.98 8043.81 3163.83 8193.14 3085.76C8446.04 2953.54 8755.31 2877.46 9018.61 3007.37C9236.69 3115 9443.18 3357.63 9721.29 3256.06C9765.5 3239.92 9806.07 3217.06 9843.29 3189.66C9840.18 3172.24 9837.08 3154.76 9833.55 3137.65C9788.84 2920.5 9717.04 2708.94 9622.48 2507.91C9597.1 2453.97 9569.9 2400.83 9541.18 2348.41C9532.09 2353.49 9522.49 2352.01 9516.79 2337.49C9498 2289.55 9475.92 2242.36 9451.57 2196.16C9395.84 2107.51 9335.47 2021.55 9270.46 1938.83C9242.57 1903.35 9214.05 1868.42 9185.13 1833.83C8941.51 1588.59 8606.32 1413.46 8255.55 1344.77C7857.37 1266.81 7439.03 1336.17 7060.81 1484.02C6661.34 1640.13 6300.05 1874.49 5965.39 2132.79C5570.56 2437.52 5208.93 2778.31 4855.67 3124.91C4261.13 3708.18 3690.08 4314.16 3184.95 4968.26C2691.13 5607.68 2265.28 6296.59 1981.38 7038.91C1835.97 7419.06 1720.09 7817.83 1672.29 8217.51C1621.94 8639.32 1669.16 9082.63 1936.4 9428.15Z" fill="#8B4226"/>
<path d="M8426.78 4002.06C8472.12 4009.12 8516.36 3987.11 8552.18 3961.77C8648.33 3893.71 8716.58 3788.88 8778.13 3693.82C8836.01 3604.45 8882.52 3504.19 8975.18 3440.93C9038.74 3397.5 9113.55 3382.05 9187.57 3364.44C9255.3 3348.33 9321.21 3325.66 9384.26 3296.43C9478.66 3252.63 9574.13 3191.06 9637.19 3110.02C9653.11 3089.52 9666.37 3066.61 9674.8 3042.51C9646.4 3094.4 9604.71 3138.74 9544.82 3161.1C9467.49 3189.94 9380.22 3175.58 9305.51 3151.57C9208.24 3120.34 9118.74 3070.96 9034.48 3016.91C8944.13 2958.93 8858.78 2894.3 8777.12 2826.01C8709.39 2769.43 8643.88 2710.29 8581.85 2648.12C8536.53 2602.74 8496.72 2553.03 8456.65 2503.47C8390.73 2421.96 8326.93 2338.98 8262.67 2256.33C8196.68 2171.46 8130.64 2086.33 8060.6 2004.35C8018.52 1955.12 7968.49 1908.25 7911.57 1874.21C7886.36 1859.14 7841.51 1832.38 7810.4 1845.73C7804.76 1848.15 7799.1 1857.23 7797.63 1868.63C7794.95 1889.34 7801.62 1911.08 7808.16 1930.33C7831.32 1998.75 7872.4 2062.4 7914.92 2121.11C7957.2 2179.56 8004.65 2234.56 8053.16 2288.42C8159.95 2406.94 8272.71 2520.69 8373.46 2644.09C8468.75 2760.8 8556.37 2888.47 8599.79 3032.26C8620.37 3100.5 8630.13 3172.39 8624.85 3244.04C8621.79 3285.86 8608.49 3322.29 8590.62 3360.9C8543.14 3463.48 8484.08 3561.35 8434.27 3662.98C8409.46 3713.65 8385.88 3765.19 8368.91 3818.58C8356.62 3857.26 8344.29 3901.59 8352.93 3941.52C8360.59 3976.85 8389.82 3996.26 8426.78 4002.06Z" fill="#D17B44"/>
<path d="M5970.36 6038.07C6023.67 5979.27 6074.05 5917.56 6115.15 5850.63C6144.61 5802.66 6169.87 5750.46 6181.2 5696.01C6128.26 5713.25 6079.44 5741.79 6034.67 5773.67C5918.27 5856.61 5819.95 5963.92 5733.79 6074.19C5660.47 6168.05 5590 6270.48 5545.42 6379.61C5568.69 6381.16 5591.68 6379.21 5614.18 6374.28C5738.42 6267.75 5861.15 6158.57 5970.36 6038.07Z" fill="#D17B44"/>
<path d="M5694.37 6343.85C5727.33 6326.83 5758.13 6305.48 5785.54 6282.8C5837.11 6240.11 5882.94 6189.73 5920.26 6134.87C5880.9 6174.31 5840.46 6212.66 5799.79 6250.06C5765.17 6281.93 5729.89 6312.99 5694.37 6343.85Z" fill="#D17B44"/>
<path d="M6306.51 6325.59C6306.22 6321.87 6307.64 6317.93 6311.59 6314.46C6452.22 6190.69 6595.99 6070.17 6735.31 5945.06C6858.43 5834.56 6978.16 5720.34 7087.89 5597.87C7171.22 5504.86 7248.45 5406.5 7323.53 5307.48C7396.67 5211.03 7466.73 5111.71 7523.56 5006.06C7568.25 4922.98 7609.4 4830.07 7611.55 4736.44C7471.09 4797.35 7364.92 4917.48 7275.13 5032.75C7178.36 5157.01 7094.59 5289.45 7001.4 5416.01C6958.44 5474.36 6913.68 5531.83 6863.92 5585.26C6818.33 5634.23 6767.31 5678.4 6714.87 5720.75C6602.67 5811.47 6483.98 5895.08 6378.48 5993.06C6278.66 6085.73 6187.92 6194.34 6155.69 6324.12C6203.43 6344.21 6256.05 6340.62 6306.51 6325.59Z" fill="#D17B44"/>
<path d="M6399.81 6283.91C6503.14 6229.04 6594.34 6153.86 6679.41 6076.27C6777.3 5986.93 6868.2 5890.75 6955.07 5791.86C6986.78 5755.74 7017.57 5718.84 7048.21 5681.92C6840.54 5901.77 6605.07 6096.06 6376.19 6295.8C6384.15 6291.9 6392.15 6287.98 6399.81 6283.91Z" fill="#D17B44"/>
<path d="M6095.1 8340.73C6099.16 8322.11 6097.78 8303.2 6088.8 8284.9C5966.35 8285.99 5853.76 8365.23 5782.26 8458.31C5866.56 8450.24 5951.03 8415.18 6025.02 8378.34C6048.42 8366.7 6071.93 8354.18 6095.1 8340.73Z" fill="#D17B44"/>
<path d="M9648.52 4161.02C9662.38 4116.45 9671.47 4067.72 9655.7 4026.56C9631.99 3964.7 9553.96 3970.83 9500.57 3996.34C9422.65 4033.59 9359.31 4097.94 9302.61 4159.44C9254.04 4212.15 9210.45 4268.55 9163.17 4322.21C9002.88 4504.09 8896.04 4718.04 8795.51 4931.81C8695.33 5144.86 8596.8 5360.2 8449.99 5550.25C8365.74 5659.38 8265.54 5752.63 8155.22 5838.31C8036.32 5930.65 7911.46 6016.32 7803.29 6120.34C7616.34 6300 7526.15 6532.15 7421.16 6756.85C7367.64 6871.35 7306.2 6979.42 7227.01 7080.64C7149.83 7179.31 7061.44 7269.59 6972.89 7359.23C6841.57 7492.14 6710.75 7626.42 6596.49 7772.89C6539.52 7845.88 6485.71 7922.74 6446.53 8005.43C6418.42 8064.76 6394.34 8134.99 6411.67 8198.85C6439.97 8199.59 6467.84 8195.15 6495.22 8187.74C6515.33 8168.83 6535.66 8150.08 6555.56 8130.95C7233.95 7479.78 7792.41 6732.77 8329.57 5978.02C8600.82 5596.86 8865.71 5211.79 9143.96 4834.97C9279.47 4651.47 9421.82 4472.56 9557.9 4289.47C9589.1 4247.42 9619.62 4204.63 9648.52 4161.02Z" fill="#D17B44"/>
<path d="M8104.28 4393.99C8128.1 4364.44 8150.45 4333.86 8170.13 4302C8205.77 4244.42 8240.85 4176.19 8240.31 4108.47C8223.02 4111.87 8205.63 4119.79 8190.35 4126.98C8158.82 4141.76 8128.78 4159.61 8100.02 4178.87C8047.27 4214.18 7992.98 4256.4 7957.82 4308.38C7945.9 4326.06 7933.15 4348.22 7936.06 4369.66C7938.85 4390.14 7958.59 4411.03 7976.71 4420.86C8016.97 4442.62 8066.12 4419.78 8104.28 4393.99Z" fill="#D17B44"/>
<path d="M8581.07 2538.72C8740.68 2643.76 8911.32 2735.86 9076.88 2832.57C9201.3 2905.23 9384.98 3031.93 9542.88 2966.05C9625.77 2931.44 9663.72 2844.93 9658.66 2764.77C9653.42 2682.33 9598.04 2601.01 9533.39 2549.37C9526.07 2543.52 9520.08 2559.22 9522.29 2564C9554.97 2634.68 9609.49 2700.36 9602.63 2782.78C9596.28 2859.34 9531.4 2898.83 9454.05 2893.91C9375.41 2888.9 9303.38 2852.82 9236.68 2817.57C9183.64 2789.54 9132.12 2759.09 9080.75 2728.49C9088.29 2728.75 9095.85 2728.67 9103.53 2727.71C9179.71 2718.49 9234.63 2655.21 9259.64 2590.77C9292.21 2506.87 9279.88 2419.23 9251.14 2337.87C9220.11 2249.91 9177.62 2164.73 9129.61 2084.35C9035.76 1927.36 8904.72 1786.64 8738.4 1695.62C8666.88 1656.51 8589.18 1625.65 8508.2 1607.36C8429.55 1589.63 8329.81 1575.59 8252.23 1609.85C8170.42 1645.93 8131.49 1737.62 8128.43 1817.46C8127.81 1833.4 8129.37 1849.3 8131.79 1865.09C8075.42 1770.38 8020.08 1675.16 7961.02 1581.99C7949.71 1564.11 7933.18 1596.66 7936.95 1607.68C7999.63 1789.94 8095.75 1962.98 8199.29 2126.36C8301.06 2286.79 8417.43 2431.06 8581.07 2538.72ZM8259.52 2049.37C8228.92 1979.34 8183.82 1913.61 8177.94 1835.63C8173.27 1773.65 8202.29 1707.81 8270.72 1687.77C8332.81 1669.53 8409.23 1686.37 8470.15 1699.16C8537.21 1713.29 8601.92 1735.79 8662.34 1765.76C8788.74 1828.51 8895.71 1919.39 8981.22 2026.57C9074.58 2143.55 9154.43 2281.18 9197.44 2423.4C9218.59 2493.32 9223.7 2574.42 9166.15 2633.34C9113.42 2687.32 8997.15 2694.18 8965.42 2619.64C8959.64 2606.06 8946.62 2624.21 8949.47 2633.32C8952.11 2641.82 8955.83 2649.8 8960.13 2657.44C8834 2584.41 8705.21 2513.07 8587.14 2429.65C8449.03 2332.09 8347.01 2203.92 8256.58 2066.56C8259.88 2061.09 8261.48 2053.84 8259.52 2049.37Z" fill="#5B310D"/>
<path d="M8473.47 2230.08C8489.77 2243.18 8500.57 2206.98 8493.94 2196.77C8448.79 2126.98 8420.99 2037.39 8410.71 1955.51C8406.73 1923.6 8417.29 1907.97 8451.87 1898.21C8487.91 1888.04 8527.4 1892.69 8562.39 1901.93C8640.23 1922.49 8704.95 1971.62 8758.37 2026.51C8788.14 2057.1 8816.63 2088.85 8845.73 2120.01C8862.15 2137.59 8878.64 2154.9 8895.98 2171.7C8903.88 2179.39 8911.82 2187.06 8919.75 2194.79C8922.83 2197.75 8934.48 2206.59 8940.09 2212.9C8939.22 2220.07 8942.47 2227.32 8951.3 2228.03C8962.22 2228.93 8967.4 2217.96 8968.6 2209.4C8971.66 2187.56 8956.04 2170.65 8944.55 2153.18C8927.58 2127.38 8910.61 2101.76 8892.44 2076.79C8858.31 2029.76 8824.52 1982.99 8784.07 1940.59C8717.54 1870.95 8632.36 1808.68 8528.21 1802.05C8480.38 1798.96 8429.46 1806.47 8391.4 1837.8C8351.42 1870.73 8334.44 1922.59 8338.84 1970.54C8343.15 2017.41 8363.73 2062.87 8383.28 2105.13C8405.35 2152.9 8431 2196.11 8473.47 2230.08Z" fill="#5B310D"/>
<path d="M8759.08 2483.37C8799.34 2510.25 8842.65 2535.94 8888.78 2553.37C8926.06 2567.48 8973.55 2572.49 9007.11 2545.23C9034.04 2523.36 9053.3 2484.6 9037.99 2452.86C9030.44 2437.21 9016.47 2458.27 9019.48 2468.68C9027.12 2495.1 8992.85 2511.79 8969.7 2514.17C8933.51 2517.93 8899.52 2498.12 8870.81 2480.77C8835.44 2459.39 8801.44 2435.83 8769.19 2410.49C8735.65 2384.1 8705.05 2354.72 8672 2327.86C8647.48 2307.93 8624.4 2364.78 8638.78 2381.86C8672.59 2421.88 8714.93 2453.9 8759.08 2483.37Z" fill="#5B310D"/>
<path opacity="0.37" d="M1936.33 9428.34C2062.67 9591.7 2234.27 9718.18 2436.33 9789.49C2621.95 9855.01 2823.51 9877.82 3022.96 9874.79C3458.17 9868.15 3900.49 9760.34 4308.44 9611.01C4485.1 9546.35 4657.04 9471.95 4824.8 9389.91C4859.15 9348.73 4892.61 9306.87 4923.44 9263.31C4971.22 9195.68 5007.99 9119.59 5039.38 9044.44C5069.95 8971.2 5094.38 8895.99 5117.79 8820.64C5140.62 8747.17 5161.54 8673.69 5195.18 8603.49C5266.91 8453.97 5375.28 8325.39 5475.38 8192.03C5629.99 7986.05 5807.33 7796.6 5967.47 7594.5C6051.42 7488.56 6131.29 7378.85 6196.62 7261.91C6251.19 7164.22 6296.15 7059.58 6313.39 6950.73C6262.12 6976.36 6219.42 7022.3 6182.69 7062.26C6118.83 7131.77 6062.42 7207.29 6006.99 7282.69C5906.33 7419.69 5811.93 7563.45 5695.33 7689.4C5656.05 7731.84 5611.5 7776.93 5557.17 7801.91C5514.95 7821.34 5444.74 7825.86 5420.25 7780.32C5390.4 7724.8 5472.58 7653.9 5509.94 7619.05C5539.38 7591.57 5563.41 7561.04 5588.98 7530.24C5622.56 7489.79 5656.36 7449.5 5689.25 7408.56C5819.85 7246 5956.45 7053.5 5940.5 6843.91C5819.94 6830.27 5693.43 6904.24 5597.55 6966.88C5496.04 7033.25 5402.42 7111.13 5316.4 7194.75C5227.72 7280.97 5157.71 7380.57 5088.22 7480.49C5008.75 7594.75 4930.48 7710.88 4836.37 7815.34C4754.75 7905.9 4657.17 7991.26 4535.92 8029.05C4521.36 8033.58 4511.87 8018.84 4517.21 8007.18C4525.41 7989.2 4536.38 7972.27 4547.21 7955.59C4635.56 7820.09 4738.45 7692.51 4833.7 7561.21C4887.76 7486.74 4941.09 7411.62 4990.72 7334.5C5028.12 7276.38 5067.01 7216.06 5091.15 7151.93C5097.92 7133.93 5105.82 7112.99 5103.5 7093.84C5102.08 7082.22 5098.23 7078.44 5082.49 7073.27C5038.47 7058.8 4984.62 7087.61 4947.65 7108.86C4880.56 7147.42 4820.6 7197.26 4763.55 7247.96C4693.16 7310.59 4626.64 7377.1 4561.92 7444.89C4438.38 7574.37 4321.72 7709.44 4205.87 7845.01C4172.1 7884.48 4139.04 7924.67 4103.52 7962.78C4065.56 8003.52 4033.75 8050.35 3999.02 8093.53C3881.04 8240.18 3757.05 8392.95 3604.13 8509.2C3558.62 8543.77 3492.91 8591.01 3431.09 8580.64C3322.55 8562.36 3329.43 8442.59 3352.93 8364.78C3368.17 8314.36 3390.36 8265.9 3412.49 8217.76C3440.9 8156.02 3468.42 8094.07 3499.46 8033.35C3575.4 7884.61 3663.21 7741.36 3753.13 7599.56C3815.99 7500.47 3881.79 7402.78 3943.55 7303.14C3988.55 7230.53 4054.15 7128.21 4032.08 7040.91C3961.2 7078.85 3901.16 7131.54 3847.8 7189.72C3738.62 7308.78 3655.72 7446.32 3558.49 7573.58C3474.11 7684.06 3373.91 7797.19 3233.78 7843.38C3223.85 7846.67 3212.81 7838.9 3212.98 7829.2C3216.08 7678.3 3294.21 7534.2 3375.09 7405.62C3443.49 7296.91 3520 7192.73 3591.22 7085.62C3656.87 6986.82 3720.6 6886.88 3777.91 6783.68C3840.85 6670.32 3898.25 6552.28 3932.32 6428.69C3958.14 6335 3972.86 6228.67 3933.78 6138.26C3862.85 6203.2 3810.95 6284.57 3766.62 6366.96C3668.32 6549.59 3602.32 6744.98 3508.21 6929.31C3430.9 7080.82 3326.53 7246.23 3150.3 7307.44C3140.11 7311 3129.68 7302.75 3129.51 7293.26C3127.89 7195.42 3160.23 7098.91 3201.23 7008.84C3249.42 6902.8 3312.2 6802.61 3378.85 6705.68C3495.71 6535.87 3629.55 6377 3741.81 6204.36C3807.6 6103.19 3866.98 5998.32 3914.44 5888.72C3963.36 5775.74 3995.63 5658.48 4027.59 5540.94C4058.18 5428.26 4089.88 5315.39 4137.48 5207.36C4184.4 5100.88 4249 5006.7 4330.81 4920.54C4406.51 4840.84 4490.38 4768.26 4563.34 4686.23C4575.28 4664.84 4587.07 4643.43 4597.6 4621.5C4610.99 4593.54 4634.02 4551.67 4627.02 4520.15C4621.32 4494.48 4591.7 4504.42 4571.94 4511.34C4525.75 4527.46 4482.96 4554.94 4442.26 4580.96C4390.03 4614.3 4339.6 4650.06 4289.41 4686.08C4245 4717.95 4201.04 4750.41 4155.95 4781.41C4131.09 4798.54 4102.75 4821.61 4072.56 4829.48C4063.2 4831.92 4050.65 4825.67 4051.81 4815.28C4056.67 4770.13 4068.63 4726.61 4086.75 4684.21C4175.04 4477.77 4368.94 4318.37 4534.31 4165.69C4625.16 4081.79 4710.43 3995.18 4789.75 3901.41C4889.97 3782.84 4982.55 3658.89 5075.45 3535.27C5165.77 3415.12 5256.47 3295.08 5354.7 3180.42C5459.49 3058.18 5573.65 2945.61 5698.38 2841.32C5965.28 2618.09 6251.26 2416.63 6509.19 2183.68C6630.29 2074.32 6748.99 1961.42 6883.7 1866.78C6995.92 1787.97 7117.71 1729.98 7250 1689.96C7461.37 1626.07 7706.09 1610.37 7892.81 1730.79C8003.4 1802.08 8075.55 1914.23 8149.55 2017.06C8235.63 2136.76 8317.83 2258.98 8406.12 2377.2C8496.7 2498.41 8594.04 2615.64 8707.07 2718.86C8809.54 2812.48 8925.04 2899.28 9057.84 2952.21C9162.74 2994.01 9290.68 3027.86 9406.64 3002.28C9511.98 2979.02 9583.07 2889.07 9581.28 2787.79C9579.95 2714.3 9550.27 2636.11 9504.65 2578.07C9486.14 2554.48 9460.05 2528.22 9427.34 2523.65C9390.25 2518.51 9361.82 2546.31 9341.31 2572.42C9331.6 2584.78 9307.78 2573.01 9313.53 2558.7C9345.05 2479.93 9347.45 2396.29 9329.66 2315.66C9294.73 2157.09 9197.52 2014.53 9090.16 1892.48C8990.66 1779.39 8874.99 1674.47 8744.41 1593.32C8729.5 1584.06 8737.38 1560.78 8756.39 1564.42C8802.92 1573.19 8848.39 1585.89 8893.03 1600.74C8700.41 1477.98 8481.2 1389.42 8255.36 1345.18C7857.19 1267.22 7438.86 1336.58 7060.65 1484.43C6661.19 1640.52 6299.91 1874.88 5965.27 2133.17C5570.45 2437.89 5208.83 2778.66 4855.58 3125.25C4261.05 3708.5 3690.03 4314.45 3184.91 4968.52C2691.11 5607.92 2265.26 6296.8 1981.37 7039.1C1835.97 7419.23 1720.09 7817.99 1672.3 8217.65C1621.88 8639.54 1669.1 9082.84 1936.33 9428.34Z" fill="#8B4226"/>
<path opacity="0.37" d="M9440.17 2984.83C9417.59 2963.27 9391.49 2944.35 9363.8 2927.57C9296.28 2886.63 9223.06 2854.22 9158.59 2808.86C9151.93 2804.15 9152.05 2792.49 9158.1 2787.1C9174.94 2772.04 9190.83 2756.07 9205.27 2738.91C9315.13 2608.42 9300.64 2441.43 9236.05 2300.23C9160.97 2136.23 9031.11 1995.59 8889.46 1880.16C8822.4 1825.53 8750.7 1775.52 8673.6 1733.93C8597.4 1692.77 8511.82 1656.12 8422.32 1649.86C8364.4 1645.81 8304.12 1655.49 8255.44 1688.72C8207.57 1721.41 8180.65 1773.21 8169.66 1826.3C8158.07 1882.18 8160.34 1939.55 8170.84 1995.79C8173.82 1999.95 8176.78 2004.17 8179.73 2008.28C8265.31 2127.32 8347.04 2248.87 8434.81 2366.44C8524.86 2487 8621.64 2603.58 8734.01 2706.23C8835.89 2799.35 8950.71 2885.67 9082.75 2938.31C9187.03 2979.88 9314.23 3013.55 9429.51 2988.11C9433.2 2987.35 9436.52 2985.84 9440.17 2984.83Z" fill="#8B4226"/>
<path opacity="0.37" d="M3854.13 5505.72C3850.74 5506.01 3847.34 5505.73 3843.95 5506.3C3797.75 5514.65 3756.98 5546.14 3723.56 5576.1C3674.14 5620.35 3631.65 5671.54 3592.32 5723.79C3496.39 5851.21 3415.84 5988.59 3339.07 6126.48C3274.78 6241.91 3214.94 6359.35 3152.23 6475.51C3085.35 6599.39 3009.57 6719.03 2943.46 6843.25C2900.62 6923.75 2861.38 7006.97 2838.28 7094.15C2825.58 7142.1 2818.13 7191.88 2821.78 7240.47C3015.59 6906.41 3235.54 6585.32 3478.17 6280.11C3657.13 6055.17 3876.11 5799.4 3854.13 5505.72Z" fill="#8B4226"/>
<path opacity="0.37" d="M3056.31 5502.96C3257.45 5265.01 3460.48 5029.72 3672.65 4800.25C3886.73 4568.68 4104.58 4340.16 4317.31 4107.44C4717.73 3669.34 5075.66 3202.49 5450.46 2745.51C5616.64 2542.86 5788.2 2342.88 5970.35 2152.27C5578.58 2455.84 5219.17 2794.65 4868.14 3139.28C4272.7 3723.83 3700.8 4331.12 3194.9 4986.65C2824.88 5466.07 2492.98 5973.31 2230.19 6509.95C2490.67 6164.17 2775.8 5834.81 3056.31 5502.96Z" fill="#8B4226"/>
<path opacity="0.37" d="M5075.79 8843.6C5080.27 8836.43 5084.75 8829.27 5089.27 8822.08C5090.36 8818.58 5091.47 8815.12 5092.58 8811.66C5115.43 8738.11 5136.36 8664.55 5170.04 8594.28C5214.15 8502.29 5272.15 8418.23 5333.51 8336.13C5345.93 8286.07 5352.6 8235.12 5349.93 8184.07C5335.67 8193.52 5321.36 8202.88 5307.26 8212.58C5092.65 8360.26 4889.52 8531.09 4720.55 8725.04C4640.98 8816.4 4567.3 8915.38 4518.6 9024.38C4498.71 9068.9 4484.88 9114.76 4477.85 9162.26C4473.57 9191.16 4470.88 9222.15 4477.02 9250.73C4485.2 9288.63 4507.06 9306.38 4547.14 9303.54C4600.41 9299.78 4655.81 9269.25 4701.94 9242.47C4802.33 9184.24 4894.93 9113.15 4983.36 9038.36C4974.37 9036 4967.02 9027.07 4972.67 9016.64C5004.46 8957.66 5040.12 8900.58 5075.79 8843.6Z" fill="#8B4226"/>
<path opacity="0.37" d="M3807.72 9352.87C3970.12 9203.46 4103.64 9023.84 4219.25 8841.07C4274.8 8753.3 4326.34 8663.04 4370.03 8569.69C4399.58 8506.65 4426.77 8440.61 4440.63 8372.88C4383.49 8380.81 4330.81 8406.54 4283.78 8439.04C4273.84 8445.88 4264.39 8453.29 4254.91 8460.66C4257.96 8464.64 4258.82 8469.91 4254.84 8475.64C4207.08 8543.82 4151.17 8606.91 4095.58 8669.53C3973.84 8806.73 3847.24 8941.65 3743.83 9091.87C3664.57 9207.08 3579.48 9352.62 3604.29 9492.7C3681.6 9463.36 3748.93 9406.97 3807.72 9352.87Z" fill="#8B4226"/>
<path opacity="0.37" d="M4165.81 8544.02C4132.22 8578.75 4100.94 8615.72 4071.09 8653.39C4075.73 8648.19 4080.39 8643.03 4084.95 8637.82C4112.28 8606.9 4139.54 8575.8 4165.81 8544.02Z" fill="#8B4226"/>
<path opacity="0.37" d="M3816.58 8718.31C3884.79 8638.59 3949.71 8552.28 3990.2 8457.04C4017.04 8393.85 4032.84 8320.52 4007.3 8256.55C3919.16 8314.43 3852.41 8398.84 3791.92 8481.16C3735.12 8558.44 3682.76 8638.99 3620.55 8712.65C3548.47 8797.92 3477.82 8884.34 3407.48 8970.87C3317.89 9081.02 3230.52 9192.9 3149.95 9308.82C3192.73 9278.01 3234.9 9246.35 3276.56 9214.2C3470.43 9064.74 3658.94 8902.59 3816.58 8718.31Z" fill="#8B4226"/>
<path opacity="0.37" d="M2359 9053.19C2374.3 9044.68 2388.15 9033.14 2400.15 9018.36C2433.95 8976.69 2448.75 8922.85 2458.73 8872.71C2479.78 8766.58 2477.72 8658.08 2479.4 8551.07C2480.02 8510.26 2480.31 8469.03 2486.8 8428.42C2496.68 8366.64 2515 8306.39 2538.42 8247.63C2589.83 8118.64 2661.89 7997.88 2721.67 7872.21C2774.76 7760.59 2817.77 7642.49 2817.41 7520.82C2798.91 7540.75 2783.63 7562.43 2768.31 7584.7C2737 7630.14 2708.51 7677.18 2681.09 7724.73C2606.65 7853.68 2540.34 7986.73 2479.92 8121.66C2415.43 8265.68 2357.32 8412.82 2313.88 8563.29C2280.76 8678.07 2248.41 8803.92 2263.79 8922.3C2268.64 8959.54 2280.71 8999.47 2306.41 9024.85C2321.15 9039.42 2339.14 9048.2 2359 9053.19Z" fill="#8B4226"/>
<path opacity="0.37" d="M1931.34 9434.59C2057.52 9597.7 2228.91 9723.99 2430.72 9795.19C2509.97 9823.17 2592.25 9842.91 2675.89 9856.61C2476.43 9748.42 2268.88 9649.8 2117.53 9482.65C2024.98 9380.43 1956.04 9256.33 1936.81 9120.71C1918.28 8990.21 1942 8856.07 1979.95 8728.81C2020.62 8592.53 2078.33 8460.87 2136.13 8329.94C2196.19 8193.98 2253.09 8058.4 2299.26 7917.91C2358.61 7737.35 2408.15 7554.37 2460.07 7372.03C2510.2 7196 2558.8 7016.65 2629.99 6846.33C2758.44 6539.14 2995.63 6289.08 3202.03 6025.98C3419.51 5748.76 3583.76 5444.29 3735.1 5132.72C3889.14 4815.56 4034.99 4493.25 4231.37 4195.68C4329.54 4046.87 4441.44 3906.84 4548.45 3763.61C4644.08 3635.58 4739.82 3501.21 4798.74 3354.57C4829.48 3278.01 4851.49 3198.05 4870.01 3118.43C4862.3 3126 4854.54 3133.49 4846.85 3141C4253.07 3723.37 3682.75 4328.42 3178.27 4981.51C2685.08 5619.95 2259.77 6307.8 1976.23 7048.98C1831.01 7428.54 1715.28 7826.7 1667.55 8225.77C1617.28 8646.97 1664.45 9089.6 1931.34 9434.59Z" fill="#8B4226"/>
<path opacity="0.37" d="M2821.83 9276.03C2857.3 9262.4 2883.88 9229.71 2904.24 9200.46C2951.89 9131.95 2983.2 9053.84 3011.36 8977.19C3048.36 8876.5 3076.07 8774.21 3100.37 8670.45C3115.93 8604.04 3131.13 8537.54 3149.98 8471.81C3158.65 8441.47 3167.09 8410.87 3180.31 8381.84C3191.73 8356.73 3204.38 8332.09 3217.15 8307.55C3264.04 8217.63 3316.78 8124.14 3313.94 8023.27C3231.33 8061.91 3162.69 8131.17 3105.12 8196.92C2953.5 8370.21 2839.52 8582.52 2780.07 8798.1C2737.82 8951.13 2715.72 9145.93 2815.51 9277.81C2817.59 9277.21 2819.65 9276.86 2821.83 9276.03Z" fill="#8B4226"/>
<path d="M6876.61 1901.36C7036.36 1808.99 7159.17 1664.76 7335.76 1596.45C7481.44 1540.08 7637.24 1559.27 7780.56 1601.07C7792.59 1604.58 7796.2 1582.89 7789.56 1577.18C7671.71 1475.74 7492.59 1461.55 7342.49 1510.66C7253.1 1539.93 7172.96 1591.66 7096.46 1643.88C7008.53 1703.88 6920.14 1771.25 6859.81 1857.55C6851.57 1869.35 6848.97 1917.33 6876.61 1901.36Z" fill="#D17B44"/>
<path d="M1886.47 8382.6C1972.7 7938.11 2032.74 7484.11 2229.03 7064.52C2331.55 6845.29 2471.09 6643.09 2615.59 6445.99C2766.84 6239.7 2923.47 6036.87 3075.53 5831.07C3389.54 5406.13 3701.55 4979.62 4022.06 4558.92C4328.62 4156.58 4657.49 3765.59 5004.1 3392.86C5352.06 3018.66 5730.42 2674.45 6119.92 2339.17C6168.46 2297.36 6220.34 2259.01 6271.76 2220.42C6276.34 2216.98 6274.59 2205.81 6267.95 2210.47C6162.72 2284.03 6055.47 2355.68 5952.05 2431.48C5849.9 2506.36 5753.82 2588.66 5659.06 2671.67C5464.46 2842.17 5278.45 3020.93 5099.83 3206.39C4743.87 3575.92 4413.09 3966.73 4096.69 4366.45C3932.8 4573.45 3764.52 4777.38 3601.45 4984.98C3436.33 5195.17 3276.65 5409.3 3117.37 5623.37C2960.55 5834.16 2805.43 6045.95 2654.06 6260.22C2507.79 6467.24 2368 6677.71 2258.02 6903.68C2157.6 7109.93 2076.17 7323.53 2011.11 7541.25C1945.48 7760.87 1890.29 7989.21 1865.74 8215.45C1859.75 8270.86 1854.43 8326.27 1849.71 8381.74C1847.1 8410.14 1881.41 8408.73 1886.47 8382.6Z" fill="#D17B44"/>
<path d="M4547.28 5224.07C4667.36 5112.57 4760.68 4970.72 4859.74 4842.79C4959.89 4713.47 5054.59 4578.37 5165.21 4456.58C5273.38 4337.43 5410.85 4247.5 5524.87 4133.9C5636.9 4022.28 5733.87 3898.51 5832.92 3776.9C6036.63 3526.86 6253.24 3286.46 6486.96 3060.68C6600.67 2950.82 6718.2 2844.39 6839.95 2742.51C6964.32 2638.46 7095.09 2543.01 7224.81 2445.15C7332.16 2364.16 7510.85 2237.45 7480.77 2089.2C7470.26 2037.27 7423.01 1984.48 7360.26 2002.21C7317.77 2014.22 7280.76 2058.03 7296.22 2099.77C7297.98 2104.52 7303.1 2102.01 7304.85 2098.57C7313.92 2080.66 7347.13 2073.44 7365.5 2075.26C7393.22 2077.99 7412.66 2101.09 7418.11 2125.91C7430.74 2183.65 7357.73 2244.48 7319 2280.71C7211.92 2380.97 7086.89 2462.93 6971.34 2553.98C6743.17 2733.77 6529.88 2930.17 6328.49 3136.41C6128.76 3340.92 5938.8 3553.88 5753.6 3770.12C5659.17 3880.34 5564.48 3990.73 5453.51 4086.87C5342.73 4182.83 5222.45 4267.85 5122.49 4374.57C5008.47 4496.36 4910.38 4631.58 4809.16 4762.68C4706.32 4895.99 4590.65 5027.7 4509.36 5173.75C4496.21 5197.45 4513.19 5255.78 4547.28 5224.07Z" fill="#D17B44"/>
<path d="M2416.13 9135.09C2494.41 9064.91 2499.05 8960.05 2486.71 8867.66C2480.07 8818.14 2425.09 8851.48 2424.27 8887.69C2422.81 8951.47 2429.37 9070.25 2331.13 9074.93C2231.76 9079.65 2237.77 8956.72 2250.71 8896.11C2286.93 8726.27 2333.1 8557.7 2385.39 8391.24C2490.29 8057.33 2630.63 7732.06 2796.64 7419.65C2963.84 7105.06 3162.52 6807.56 3382.08 6522.37C3493.05 6378.27 3620.61 6242.68 3680.02 6071.39C3709.56 5986.25 3724.72 5897.75 3750.36 5811.64C3774.69 5729.91 3804.97 5650.04 3840.96 5571.95C4004.52 5217.21 4250.43 4895.51 4505.74 4593.58C4511.52 4586.74 4505.42 4573.14 4497.3 4582.38C4249.21 4863.71 3983.96 5137.44 3812.58 5468.05C3769.77 5550.68 3732.73 5635.68 3701.67 5722.58C3670.22 5810.68 3651.28 5900.89 3626.83 5990.58C3574.02 6184.49 3428.93 6329.17 3308.39 6489.65C2847.45 7103.3 2504.92 7794.32 2284.01 8511.33C2252.74 8612.76 2224.22 8714.91 2198.5 8817.58C2175.25 8910.39 2142.26 9017.57 2194.77 9104.9C2242.45 9184.16 2342.87 9200.71 2416.13 9135.09Z" fill="#D17B44"/>
<path d="M2731.59 8286.61C2867.16 7986.98 3039.97 7700.9 3244.89 7437.29C3450.13 7173.2 3671.97 6924.83 3821.95 6627.74C3900.84 6471.44 3975.4 6304.76 4009.22 6134.94C4014.31 6109.45 3988.44 6103.61 3979.9 6128.61C3928.62 6278.7 3880.73 6427.24 3809.14 6570.9C3739.5 6710.59 3652.94 6843.74 3555.36 6968.12C3449.48 7103.11 3326.35 7225.01 3222.46 7361.75C3122.39 7493.49 3031.33 7632.5 2949.69 7774.75C2857.6 7935.19 2778.5 8102.2 2710.21 8272.28C2703.07 8289.88 2721.52 8308.85 2731.59 8286.61Z" fill="#D17B44"/>
<path d="M4663.82 5789.96C4780.02 5655.41 4883.68 5510.29 4992.25 5370.2C5100.59 5230.36 5212.81 5093.16 5328.7 4958.79C5446.78 4821.87 5571.51 4694.51 5708.1 4573.86C5846.3 4451.86 5977.67 4324.71 6109.74 4196.74C6243.75 4066.88 6378.57 3937.7 6511.8 3807.09C6576.8 3743.38 6641.73 3679.64 6706.75 3615.97C6770.97 3553.06 6832.06 3486.14 6906.58 3433.68C7051.03 3331.99 7229.54 3287.05 7375.39 3186.88C7511.34 3093.54 7613.57 2962.76 7721.35 2842.83C7781.69 2775.72 7843.8 2707.8 7913.37 2648.96C7980.6 2592.08 8065.33 2544.15 8156.67 2568.97C8239.75 2591.54 8256.75 2670.48 8258.02 2742.94C8259.23 2811.75 8253.08 2880.08 8270.75 2947.15C8274.61 2961.81 8290.86 2944.06 8289.46 2934.66C8270.92 2811.16 8339.28 2662.15 8258.88 2551.88C8163.58 2421.23 7974.49 2487.35 7871.19 2577.94C7741.21 2691.93 7653.42 2841.33 7537.8 2967.16C7478.58 3031.6 7410.61 3090.98 7333.73 3135.93C7254.44 3182.32 7167.63 3214.13 7082.53 3248.79C6996.2 3283.94 6912.58 3323.12 6837.99 3378.38C6763.48 3433.65 6697.84 3499.64 6631.34 3563.15C6490.54 3697.47 6350.27 3832.24 6210.49 3967.46C6072.79 4100.64 5933.77 4232.72 5800.99 4370.29C5669.15 4506.9 5552.8 4658.08 5426.1 4799.12C5285.87 4955.22 5144.07 5109.37 5010.39 5270.56C4878.59 5429.48 4746.87 5593.52 4643.34 5770.14C4634.52 5785.11 4648.37 5807.82 4663.82 5789.96Z" fill="#D17B44"/>
<path d="M4008.78 6601.73C4139.79 6392.36 4284.16 6191.19 4445.21 6000.86C4448.91 5996.44 4445.04 5987.73 4439.77 5993.65C4276.7 6177.39 4123.42 6369.32 3984.73 6569.82C3970.2 6590.94 3991.01 6630.19 4008.78 6601.73Z" fill="#D17B44"/>
<path d="M4233.74 7299.54C4350.28 7199.41 4486.34 7118.67 4612.24 7029.64C4739.49 6939.7 4852.87 6839.08 4952.49 6721.87C5050.21 6606.8 5135.87 6483.55 5228.29 6364.85C5324.27 6241.59 5431.09 6128.26 5546.11 6020.48C5778.96 5802.34 6025.23 5599.39 6215.98 5345.31C6407.89 5089.68 6570.1 4814.77 6755.02 4554.61C6858.61 4408.84 6967.74 4266.5 7083.45 4128.89C7206.51 3982.52 7343.36 3836.84 7517.65 3744.36C7524.82 3740.59 7526.03 3722.66 7515.34 3726.91C7363 3787.62 7241.27 3888.63 7130.11 4002.91C7017.84 4118.25 6914.41 4240.98 6815.54 4366.59C6617.77 4617.82 6444.46 4883.74 6262.63 5144.94C6170.76 5276.91 6072.18 5403.83 5957.86 5519.63C5844.41 5634.58 5721.83 5741.09 5601.73 5849.75C5484.32 5956.02 5369.1 6064.95 5266.38 6184.17C5166.54 6300.08 5078.1 6424 4983.13 6543.35C4876.11 6677.83 4760.04 6800.52 4618.84 6903.97C4470.2 7012.85 4319.92 7108.24 4210.01 7255.91C4196.83 7273.5 4204.38 7324.79 4233.74 7299.54Z" fill="#D17B44"/>
<path d="M3739.25 7853.73C3772.55 7810.6 3805.87 7767.4 3839.21 7724.24C3842.95 7719.4 3838.75 7709.79 3833.35 7716.47C3799.14 7758.48 3765 7800.5 3730.79 7842.51C3725.09 7849.49 3731.8 7863.39 3739.25 7853.73Z" fill="#D17B44"/>
<path d="M2814.02 9380C2853.62 9379.11 2866.65 9294.36 2820.17 9294.63C2751.65 9294.97 2716.43 9225.88 2721.21 9169.15C2727.27 9097.26 2771.67 9025.79 2799.67 8959.31C2862.82 8809.38 2924.19 8659.64 2997.63 8513.53C3150.22 8210.11 3361.83 7942.02 3570.02 7670.34C3695.98 7506 3816.76 7338.71 3940.73 7173.2C3952.66 7157.3 3939.63 7125.94 3921.52 7147.66C3671.5 7447.27 3408.01 7740.41 3179.79 8055.47C2965.79 8350.92 2802.49 8681.12 2690.57 9020.69C2665.28 9097.41 2636.97 9184.88 2661.27 9263.67C2681.74 9329.81 2737.77 9381.76 2814.02 9380Z" fill="#D17B44"/>
<path d="M2955.53 9579.66C3054.04 9386.79 3214.92 9229.67 3364.06 9070.53C3436.34 8993.41 3506.89 8915.24 3567.74 8829.78C3634.23 8736.36 3685.14 8634.36 3751.04 8540.59C4008.51 8174.36 4414.9 7932.66 4708.12 7594.91C4791.42 7498.96 4856.89 7391.74 4959.92 7312.63C5033.95 7255.74 5125.52 7174.39 5112.5 7076.54C5108.8 7048.97 5080.93 7063.13 5075.03 7082.03C5050.97 7159.41 4945.43 7194.15 4885.28 7245.02C4795.62 7320.88 4734.58 7421.07 4660.71 7509.45C4517.75 7680.41 4345.11 7826.65 4177.98 7975.88C4015.75 8120.72 3854.88 8270.45 3727.94 8444.68C3659.62 8538.44 3608.58 8640.98 3545.25 8737.41C3487 8826.15 3418.6 8909.29 3349.11 8990.56C3194.02 9172.07 3028.17 9347.43 2934.61 9565.59C2927.29 9582.86 2944.71 9600.9 2955.53 9579.66Z" fill="#D17B44"/>
<path d="M5677.17 6609.85C5740.42 6547.25 5813.94 6495.21 5878.52 6434.01C5942.54 6373.36 6006.1 6312.48 6068.73 6250.53C6193.36 6127.31 6317.88 6003.91 6441.63 5879.89C6667.84 5653.23 6890.34 5422.05 7085.74 5170.95C7184.02 5044.71 7274.59 4913.4 7355.32 4776.79C7432.7 4645.82 7489.02 4500.58 7584.97 4379.84C7636.94 4314.39 7704.81 4265.97 7771.34 4214.62C7835.87 4164.85 7893.83 4109.38 7948.46 4050.1C8059.31 3929.85 8150.31 3795.08 8236.3 3658.68C8326.91 3515.03 8431.31 3365.64 8475.79 3202.94C8488.76 3155.46 8506.7 3059.12 8438.64 3041.14C8409.39 3033.43 8379.39 3047.41 8354.05 3060.76C8313.36 3082.26 8275.39 3107.88 8240.62 3137.22C8227.41 3148.4 8233.04 3183.29 8252.35 3167.76C8285.51 3141.09 8443.9 3030.48 8431.95 3137.38C8424.85 3200.81 8381.47 3271.15 8349.82 3327.07C8278.24 3453.59 8194.74 3576.77 8111.45 3696.91C8026.97 3818.66 7934.95 3937.14 7822.96 4038.13C7709.28 4140.62 7580.31 4220.3 7494.32 4347.59C7412.53 4468.62 7356.39 4602.81 7283.24 4728.24C7209.49 4854.67 7125.46 4975.87 7035.74 5092.93C6854.31 5329.54 6648.57 5548.71 6439.53 5763.92C6312.34 5894.9 6184.08 6024.97 6055.74 6155.02C5991.01 6220.61 5926.92 6286.63 5863.27 6353.13C5794.27 6425.24 5735.05 6505.17 5663.94 6575.55C5650.4 6589.1 5657.94 6628.87 5677.17 6609.85Z" fill="#D17B44"/>
<path d="M7716.51 5390.1C7742.17 5340.94 7774.84 5295.28 7798.24 5245.11C7824.06 5189.67 7850 5134.21 7876.81 5079.16C7926.73 4976.75 7983.69 4877.12 8053.41 4785.03C8199.58 4591.96 8388.03 4423.01 8568.6 4258.71C8664.94 4171.09 8766.75 4091.37 8876.34 4019.16C8972.27 3955.98 9073.01 3897.99 9163.57 3827.72C9250.77 3760.01 9313.43 3677.71 9369.35 3586.26C9420.67 3502.29 9469 3411.37 9546.98 3345.66C9584.48 3314.06 9664.59 3257.06 9673.23 3337.06C9678.82 3388.64 9672.26 3444.8 9665.45 3496.53C9649.53 3617.18 9604.44 3731.24 9534.44 3834.44C9521.64 3853.3 9538.02 3890.59 9556.74 3864.11C9620.63 3773.63 9670.54 3673.81 9703.72 3570.27C9720.8 3517.01 9733.46 3461.88 9739.7 3406.76C9745.53 3355.72 9753.79 3292.59 9731.25 3244.94C9678.26 3132.82 9535.07 3242.71 9480.05 3298.71C9400.94 3379.19 9349.9 3477.44 9289.44 3569.91C9220.11 3675.98 9134.78 3770.35 9027.53 3844.39C8917.47 3920.39 8798.78 3984.04 8690.81 4062.92C8578.3 4145.12 8474.46 4237.92 8372.45 4331.46C8274.12 4421.57 8176.35 4512.27 8087.38 4610.79C7986.91 4722 7903.01 4844.08 7835.6 4975.16C7802.87 5038.81 7773.6 5103.51 7748.34 5169.92C7722 5239.09 7709.08 5308.13 7690.42 5378.95C7685.17 5398.39 7705.42 5411.21 7716.51 5390.1Z" fill="#D17B44"/>
<path d="M7525.33 6430.43C7609.21 6294.41 7683.12 6155.29 7779.13 6025.92C7881.4 5888.16 8016.16 5788.88 8156.82 5688.29C8297.75 5587.55 8421.73 5480.26 8514.62 5336.93C8607.05 5194.32 8676.19 5039.92 8749.68 4888.62C8838.6 4705.61 8923.28 4520.8 9012.59 4338.01C9019.65 4323.53 9004.43 4308.81 8995.05 4326.2C8910.5 4483.45 8821.38 4638.7 8736.42 4795.79C8655.31 4945.81 8580.59 5101.44 8487.67 5245.59C8394.63 5389.93 8272.72 5498.92 8130.9 5600.47C7991.52 5700.25 7856.63 5798.85 7751.42 5932.63C7638.94 6075.67 7560.57 6246.28 7498.04 6412.41C7491.73 6429.48 7512.39 6451.41 7525.33 6430.43Z" fill="#D17B44"/>
<path d="M5820.47 8228.8C5941.51 8218.06 6052.15 8163.88 6145.47 8090.08C6195.77 8050.33 6240.61 8004.8 6282.72 7957.51C6327.08 7907.68 6356.18 7855.25 6389.05 7798.98C6396.42 7786.33 6386.65 7755.11 6368.72 7772.1C6329.56 7809.17 6290.87 7843.23 6254.49 7883.3C6214.98 7926.83 6173.84 7968.63 6127.35 8005.74C6060.78 8058.88 5984.13 8099.53 5901.1 8119.9C6083.84 7832.57 6375.75 7619.49 6575.97 7343.09C6628.78 7270.19 6675.56 7192.71 6710.82 7111.16C6754.57 7010.06 6778.69 6903.7 6816.16 6800.8C6880.86 6623.38 6989.46 6462.71 7111.76 6314.79C7259.08 6136.7 7423.96 5970.36 7590.63 5808.34C7602.64 5796.67 7598.6 5760.52 7578.61 5777.07C7422.37 5906.72 7263.25 6034.1 7126.01 6182.14C6989.92 6328.98 6870.46 6490.45 6787.99 6669.25C6702.88 6853.85 6674.39 7054.16 6562.19 7228.64C6460.01 7387.47 6324.61 7523.48 6191.99 7659.97C6041.92 7814.48 5894.42 7972.69 5794.15 8160.8C5782.5 8183.02 5783.41 8232.07 5820.47 8228.8Z" fill="#D17B44"/>
<path d="M4359.48 9364.84C4398.39 9410.15 4461.37 9395.83 4509.99 9370.74C4661.22 9292.66 4803.4 9192.42 4940.24 9093.5C4956.69 9081.62 4949.88 9042.11 4926.85 9058.56C4806.31 9144.6 4679.01 9220.98 4546.98 9289.8C4504.81 9311.77 4416.35 9362.26 4391.88 9295.88C4373.15 9244.96 4415.31 9180.91 4441 9137.85C4562.28 8934.42 4753.82 8776.53 4936.4 8623.06C5136.39 8454.97 5323.98 8278.73 5482.41 8074.17C5641.41 7868.87 5763.24 7637.96 5950.05 7452.16C6055.88 7346.92 6166.67 7246.7 6254.95 7127.24C6340.33 7011.73 6409.65 6887.59 6459.94 6755.67C6472.51 6722.76 6441.08 6686.96 6419.63 6728.55C6358.62 6846.98 6285.44 6960.33 6199.31 7064.49C6108.96 7173.71 6002 7266.62 5902.81 7368.35C5704.61 7571.7 5576.43 7820.79 5403.15 8041.27C5231.35 8259.91 5022.97 8439.09 4812.23 8623.03C4715.98 8707.05 4621.99 8793.9 4538.86 8889.76C4459.41 8981.44 4380.42 9091.7 4345.27 9205.86C4329.9 9255.83 4323.1 9322.5 4359.48 9364.84Z" fill="#D17B44"/>
<path d="M3555.59 9544.53C3640.16 9556.62 3726.45 9506.14 3756.95 9430.13C3769.8 9398.19 3740.39 9365.34 3718.28 9404.13C3694.47 9445.92 3648.32 9462.22 3602.83 9457.15C3606.6 9409.76 3629.75 9363.65 3653.77 9322.08C3689.34 9260.5 3727.76 9200.17 3766.71 9140.38C3849.9 9012.68 3937.53 8887.36 4030.24 8765.52C4120.46 8646.92 4212.25 8526.82 4331.14 8431.94C4390.28 8384.7 4452.98 8341.56 4510.24 8292.16C4567.4 8242.89 4620.46 8189.28 4670.77 8133.78C4770.71 8023.49 4857.6 7903.65 4946.62 7785.59C5038.14 7664.21 5132.71 7544.77 5233.67 7430.09C5333.98 7316.14 5440.71 7207.05 5555.75 7106.18C5614.33 7054.81 5675.06 7005.61 5738.03 6959.14C5763.36 6940.47 5789.82 6917 5820.58 6906.86C5828.28 6904.32 5846.56 6898.52 5853.81 6902.78C5865.81 6909.91 5848.27 6925.59 5841.61 6935.71C5646.33 7232.22 5447.68 7527.51 5235.98 7814.17C5224.65 7829.51 5237.94 7859.89 5254.39 7838.66C5465.55 7565.79 5673.88 7291.5 5868.58 7008.12C5899.58 6962.99 5959.21 6887.38 5905.59 6838.51C5868.89 6805.1 5809.44 6831.19 5773.74 6855.19C5634.38 6948.81 5506.71 7060.22 5388.3 7176.61C5148.48 7412.23 4957.03 7679.6 4750.61 7940.04C4648.37 8069.06 4537.31 8188.9 4399.9 8285.66C4330.46 8334.56 4260.02 8380.78 4198.25 8438.63C4139.22 8493.93 4087.37 8555.1 4037.03 8617.37C3918.76 8763.58 3807.86 8914.91 3706.1 9071.61C3619.25 9205.36 3509.12 9353.08 3533.4 9515.79C3535.23 9527.09 3541.69 9542.53 3555.59 9544.53Z" fill="#D17B44"/>
<path opacity="0.37" d="M4664.79 6878.19C4789.81 6794.35 4889.46 6681.93 4980.66 6566.75C5074.08 6448.78 5161.92 6327.22 5261.52 6213.56C5478.81 5965.65 5734.41 5751.25 5966.25 5515.96C6061.16 5419.63 6150.11 5319.6 6231.54 5212.89C6312.08 5107.39 6386.26 4997.85 6458.6 4887.39C6599.45 4672.23 6733.44 4452.46 6894.21 4249.32C6944.88 4185.25 6998.86 4123.63 7055.58 4064.53C7046.81 4060.41 7041.57 4049.29 7050.46 4040.32C7061.06 4029.59 7071.38 4018.63 7081.6 4007.6C7153.84 3929.76 7223.33 3849.19 7288.07 3765.74C7316.45 3729.21 7344.85 3691.75 7367.06 3651.58C7373.69 3639.59 7378.18 3630.12 7381.31 3617.49C7371.81 3619.83 7354.25 3626.47 7342.13 3632.71C7313.07 3647.8 7285.49 3665.69 7258.41 3683.86C7211.88 3715.05 7170.91 3755.46 7130.75 3793.67C7086.24 3836 7043.17 3879.59 6999.47 3922.59C6957.91 3963.52 6916.51 4007.79 6869.47 4043.19C6821.34 4079.39 6771.71 4113.74 6722.35 4148.32C6622.28 4218.46 6522.19 4289.53 6434.73 4373.89C6265.7 4536.97 6112.31 4711.38 5972.75 4897.4C5833.06 5083.51 5705.16 5276.98 5577.61 5470.42C5514.28 5566.45 5451.03 5662.49 5386.35 5757.76C5337.1 5830.29 5288.73 5904.01 5234.4 5973.35C5152.83 6077.45 5060.44 6174.23 4973.07 6274.02C4871.93 6389.51 4771.44 6507.35 4689.68 6635.87C4655.73 6689.22 4624.12 6745.14 4604.02 6804.35C4590.94 6842.85 4582.07 6884.15 4587.5 6924.04C4614.06 6909.86 4639.96 6894.85 4664.79 6878.19Z" fill="#8B4226"/>
<path opacity="0.37" d="M4805.69 5478.92C4913.47 5390.52 4981.28 5266.49 5061.66 5157.42C5157.97 5026.71 5278.38 4910.01 5399.06 4799.29C5525.31 4683.5 5660.04 4576.37 5784.4 4458.77C5906.37 4343.44 6020.58 4221.04 6131.69 4096.41C6242.14 3972.5 6349.8 3846.34 6460.4 3722.57C6513.04 3663.7 6566.33 3607.88 6631.32 3560.83C6692.56 3516.5 6759.73 3480.44 6828.67 3448.39C6964.35 3385.29 7107.44 3336.13 7234.43 3256.71C7362.55 3176.55 7457.69 3063.47 7547.66 2947.64C7625.55 2847.39 7699.29 2742.81 7793.81 2655.24C7823.87 2627.38 7855.88 2602.38 7889.35 2579.46C7894.61 2561.54 7896.91 2543.65 7893.24 2526.88C7882.4 2477.37 7806.24 2477.01 7767.03 2495.92C7711.73 2522.62 7667.5 2570.5 7627.36 2614.24C7588.33 2656.81 7553.12 2702.17 7509.36 2740.66C7379.06 2855.16 7221.56 2928.62 7068.56 3010.5C6909.16 3095.81 6766.37 3203.4 6631.57 3320.63C6359.37 3557.3 6123.39 3827.79 5879.54 4089.61C5625.42 4362.39 5370.56 4634.04 5128.53 4916.49C5035.98 5024.55 4942.88 5133.21 4855.36 5244.95C4797.78 5318.45 4718.21 5423.31 4744.41 5518.57C4766.17 5507.26 4786.88 5494.34 4805.69 5478.92Z" fill="#8B4226"/>
<path opacity="0.37" d="M5656.92 3997.65C5724.34 3925.73 5783.18 3847.01 5839.55 3767.34C5895.93 3687.66 5949.4 3606.26 6004.24 3525.66C6052.26 3455.11 6101.11 3385.67 6159.46 3322.15C6259.22 3213.59 6366.96 3111.85 6477.54 3013.18C6576.39 2924.94 6676.63 2838.47 6780.92 2756.08C6965.82 2609.98 7168.2 2460.68 7290.45 2260.63C7324.54 2204.78 7361.26 2136.66 7350.37 2070.78C7306.14 2060.94 7260.04 2074.46 7217.94 2096.61C7216.85 2097.6 7215.62 2098.67 7214.66 2099.58C7211.75 2102.28 7208.56 2103.36 7205.38 2103.8C7180.73 2117.89 7157.56 2133.98 7137.49 2148.93C7054.46 2210.91 6978.16 2283.25 6907 2357.04C6756.74 2512.78 6626.52 2684.85 6469.62 2835.06C6396.36 2905.21 6317.95 2970.43 6243.96 3039.91C6174.49 3105.19 6106.75 3172.19 6041.74 3241.42C5916.28 3375.12 5801.43 3517.54 5702.76 3669.72C5604.58 3821.15 5523.43 3981.45 5456.51 4146.65C5461.49 4144.97 5466.5 4143.33 5471.38 4141.31C5544.56 4110.95 5604.64 4053.4 5656.92 3997.65Z" fill="#8B4226"/>
<path opacity="0.37" d="M8250.88 4465.41C8120.11 4578.84 7997.95 4707.99 7922.37 4860.44C7866.15 4973.81 7816.67 5092.31 7784.89 5213.42C7771.87 5263.2 7725.98 5429.81 7821.86 5424.77C7860.07 5422.78 7896.06 5397.76 7924.25 5374.42C7968.94 5337.45 8006.95 5293.37 8042.35 5248.59C8134.35 5132.32 8210.8 5005.23 8285.27 4878.81C8353.98 4762.08 8418.75 4643.26 8489.29 4527.46C8511.15 4491.59 8533.01 4454 8560.79 4421.68C8589.6 4388.18 8622.9 4357.71 8653.82 4325.94C8738.85 4238.7 8828.09 4146.4 8882.62 4038.84C8892.96 4018.41 8902.72 3995.64 8907.79 3972.49C8882.39 3993.04 8856.72 4013.28 8830.72 4033.1C8639.12 4179.17 8432.64 4307.79 8250.88 4465.41Z" fill="#8B4226"/>
<path opacity="0.37" d="M7266.06 6153.42C7216.47 6199.78 7166.3 6245.69 7119.33 6294.4C7069.93 6345.63 7028.63 6401.41 6989.92 6460.07C6902.04 6593.17 6835.61 6736.56 6801.68 6889.2C6771.89 7023.22 6727.32 7150.79 6639.35 7263.12C6600.54 7312.68 6551.83 7354.64 6510.42 7402.18C6475.47 7442.31 6440.96 7491.17 6442.74 7544.13C6588.41 7523.47 6695.34 7403.96 6770.4 7291.82C6935.54 7045.11 7009.6 6761.66 7125.94 6495.34C7155.17 6428.49 7204.98 6373.46 7255.71 6319.67C7313.87 6257.95 7377.06 6198.58 7425.64 6129.64C7444.9 6102.37 7469.39 6067.21 7471.07 6033.83C7472.4 6007.98 7468.67 5980.77 7456.76 5957.47C7448.55 5967.64 7440.31 5977.77 7431.69 5987.6C7380.47 6046.2 7323.25 6099.99 7266.06 6153.42Z" fill="#8B4226"/>
<path opacity="0.37" d="M6708.15 5430.23C6869.24 5272.77 7003.84 5093.36 7161.26 4932.61C7227.22 4865.27 7294.34 4798.49 7358.51 4729.62C7460.44 4579.06 7556.16 4424.72 7659.17 4274.89C7756.84 4132.8 7862.77 3997.7 7980.59 3869.83C8077.44 3764.72 8173.05 3658.44 8262.5 3547.67C8310.92 3487.76 8357.62 3426.51 8399.97 3362.73C8434.19 3311.19 8467.51 3257.21 8488.8 3199.79C8501.56 3165.33 8514.65 3118.42 8496.27 3088.02C8476.75 3055.77 8435.59 3052.8 8397.96 3067.79C8331.86 3094.08 8275.17 3146.33 8224.85 3193.4C8161.12 3252.95 8102.27 3317.13 8045.77 3382.74C7931.39 3515.38 7822.91 3655.26 7730.48 3801.94C7587 4029.62 7482.7 4277.19 7321.06 4494.79C7173.95 4692.82 7001.02 4872.11 6838.96 5059.19C6689.1 5232.27 6547.16 5414.98 6453.86 5620.54C6550.53 5575 6633.59 5503.12 6708.15 5430.23Z" fill="#8B4226"/>
</g>
<defs>
<clipPath id="clip0_192_14">
<rect width="11543" height="11446" fill="white"/>
</clipPath>
</defs>
</svg>
